<svg width="42" height="42" viewBox="0 0 42 42" fill="none" xmlns="http://www.w3.org/2000/svg">
<path d="M40.3872 6.21973L37.6333 8.37305C33.8784 3.57324 28.0386 0.492188 21.481 0.492188C10.1577 0.492188 0.992686 9.64746 0.978037 20.9756C0.963389 32.3135 10.148 41.5078 21.481 41.5078C30.3335 41.5078 37.8775 35.8926 40.7485 28.0264C40.8218 27.8213 40.7144 27.5918 40.5093 27.5234L37.7407 26.5713C37.6442 26.5382 37.5386 26.5442 37.4464 26.588C37.3542 26.6318 37.2829 26.7099 37.2476 26.8057C37.1597 27.0498 37.062 27.2939 36.9595 27.5332C36.1148 29.5352 34.9038 31.332 33.3609 32.875C31.8303 34.4084 30.0182 35.632 28.0239 36.4785C25.9585 37.3525 23.7564 37.7969 21.4907 37.7969C19.2202 37.7969 17.023 37.3525 14.9575 36.4785C12.9613 35.6355 11.1485 34.4115 9.62061 32.875C8.08595 31.3447 6.8637 29.5304 6.02198 27.5332C5.14796 25.4629 4.70362 23.2656 4.70362 20.9951C4.70362 18.7246 5.14796 16.5273 6.02198 14.457C6.86671 12.4551 8.07765 10.6582 9.62061 9.11523C11.1636 7.57227 12.9605 6.36133 14.9575 5.51172C17.023 4.6377 19.2251 4.19336 21.4907 4.19336C23.7612 4.19336 25.9585 4.6377 28.0239 5.51172C30.0202 6.35471 31.8329 7.5787 33.3609 9.11523C33.8442 9.59863 34.2984 10.1113 34.7183 10.6484L31.7788 12.9434C31.7207 12.9884 31.6764 13.0488 31.6511 13.1179C31.6258 13.1869 31.6205 13.2617 31.6358 13.3336C31.6511 13.4055 31.6864 13.4717 31.7376 13.5244C31.7888 13.5772 31.8539 13.6144 31.9253 13.6318L40.4995 15.7314C40.7437 15.79 40.9829 15.6045 40.9829 15.3555L41.022 6.52246C41.0171 6.2002 40.6411 6.01953 40.3872 6.21973V6.21973Z" fill="white"/>
</svg>
