<svg width="18" height="29" viewBox="0 0 18 29" fill="none" xmlns="http://www.w3.org/2000/svg">
<path d="M0.526894 7.53542C0.522616 7.63634 0.539027 7.73707 0.575118 7.83141C0.611208 7.92575 0.666214 8.01171 0.736755 8.08401C0.807296 8.15631 0.89188 8.21341 0.985306 8.25181C1.07873 8.29021 1.17902 8.30909 1.28002 8.3073H3.85814C4.28939 8.3073 4.63314 7.95417 4.68939 7.52605C4.97064 5.47605 6.37689 3.9823 8.88314 3.9823C11.0269 3.9823 12.9894 5.05417 12.9894 7.63229C12.9894 9.61667 11.8206 10.5292 9.97377 11.9167C7.87064 13.4448 6.20502 15.2292 6.32377 18.126L6.33314 18.8042C6.33642 19.0092 6.42018 19.2047 6.56634 19.3485C6.7125 19.4924 6.90934 19.5729 7.11439 19.5729H9.64877C9.85597 19.5729 10.0547 19.4906 10.2012 19.3441C10.3477 19.1976 10.43 18.9989 10.43 18.7917V18.4635C10.43 16.2198 11.2831 15.5667 13.5863 13.8198C15.4894 12.3729 17.4738 10.7667 17.4738 7.3948C17.4738 2.67292 13.4863 0.39167 9.12064 0.39167C5.16127 0.39167 0.823769 2.23542 0.526894 7.53542V7.53542ZM5.39252 25.5448C5.39252 27.2104 6.72064 28.4417 8.54877 28.4417C10.4519 28.4417 11.7613 27.2104 11.7613 25.5448C11.7613 23.8198 10.4488 22.6073 8.54564 22.6073C6.72064 22.6073 5.39252 23.8198 5.39252 25.5448Z" fill="white"/>
</svg>
