<svg width="50" height="50" viewBox="0 0 50 50" fill="none" xmlns="http://www.w3.org/2000/svg">
<path d="M47.8125 19.5312C45.3125 9.21875 36.0937 1.5625 25 1.5625H24.2188V19.5312H47.8125Z" fill="#428BC1"/>
<path d="M13.2812 4.6875C7.8125 7.89062 3.75 13.2031 2.1875 19.5312H13.2812V4.6875Z" fill="#428BC1"/>
<path d="M2.1875 30.4688C3.75 36.7969 7.8125 42.1094 13.2812 45.3125V30.4688H2.1875Z" fill="#428BC1"/>
<path d="M24.2188 48.4375H25C36.0937 48.4375 45.3125 40.7812 47.8125 30.4688H24.2188V48.4375Z" fill="#428BC1"/>
<path d="M47.8125 19.5312H24.2188V1.5625C20.2344 1.71875 16.4844 2.8125 13.2812 4.6875V19.5312H2.1875C1.79687 21.25 1.5625 23.125 1.5625 25C1.5625 26.875 1.79687 28.75 2.1875 30.4688H13.2812V45.3125C16.4844 47.1875 20.2344 48.2812 24.2188 48.4375V30.4688H47.8125C48.2031 28.75 48.4375 26.875 48.4375 25C48.4375 23.125 48.2031 21.25 47.8125 19.5312Z" fill="#FFE62E"/>
</svg>
