<svg width="50" height="51" viewBox="0 0 50 51" fill="none" xmlns="http://www.w3.org/2000/svg">
<path d="M17.1875 47.6016V36.8203L9.14062 42.7578C11.4063 44.8672 14.1406 46.5078 17.1875 47.6016" fill="#2A5F9E"/>
<path d="M32.8125 47.6016C35.8594 46.5078 38.5937 44.8672 40.8594 42.7578L32.8125 36.7422V47.6016Z" fill="#2A5F9E"/>
<path d="M2.89062 33.3047C3.125 34.0859 3.4375 34.7891 3.82813 35.5703L6.875 33.3047H2.89062Z" fill="#2A5F9E"/>
<path d="M43.125 33.3047L46.1719 35.5703C46.4844 34.8672 46.7969 34.0859 47.1094 33.3047H43.125Z" fill="#2A5F9E"/>
<path d="M18.3594 30.1797H2.03125C2.26563 31.2734 2.57813 32.2891 2.89063 33.3047H6.875L3.82813 35.5703C4.45313 36.8984 5.15625 38.0703 6.01562 39.2422L14.0625 33.3047H17.1875V34.8672L8.04688 41.5859L9.14063 42.6797L17.1875 36.8203V47.6016C18.2031 47.9922 19.2187 48.2266 20.3125 48.4609V30.1797H18.3594Z" fill="white"/>
<path d="M47.9688 30.1797H29.6875V48.4609C30.7813 48.2266 31.7969 47.9141 32.8125 47.6016V36.8203L40.8594 42.6797C41.9531 41.6641 42.8906 40.5703 43.8281 39.3984L35.4688 33.3047H40.7813L45.5469 36.8203C45.7813 36.4297 46.0156 35.9609 46.1719 35.5703L43.125 33.3047H47.1094C47.4219 32.2891 47.7344 31.2734 47.9688 30.1797" fill="white"/>
<path d="M6.01562 39.2422C6.64063 40.1016 7.26563 40.8828 7.96875 41.6641L17.1875 34.9453V33.3828H14.0625L6.01562 39.2422Z" fill="#ED4C5C"/>
<path d="M35.5469 33.3047L43.9063 39.3984C44.2188 39.0078 44.4531 38.6172 44.7656 38.2266C44.8437 38.1484 44.8437 38.0703 44.9219 38.0703C45.1563 37.6797 45.4687 37.2109 45.7031 36.8203L40.7813 33.3047H35.5469Z" fill="#ED4C5C"/>
<path d="M32.8125 3.38281V14.1641L40.8594 8.22656C38.5937 6.11719 35.8594 4.47656 32.8125 3.38281Z" fill="#2A5F9E"/>
<path d="M17.1875 3.38281C14.1406 4.47656 11.4063 6.11719 9.14062 8.22656L17.1875 14.2422V3.38281Z" fill="#2A5F9E"/>
<path d="M47.1094 17.6797C46.875 16.8984 46.5625 16.1953 46.1719 15.4141L43.125 17.6797H47.1094" fill="#2A5F9E"/>
<path d="M6.875 17.6797L3.82813 15.4141C3.51563 16.1953 3.20313 16.8984 2.89062 17.6797H6.875Z" fill="#2A5F9E"/>
<path d="M31.6406 20.8047H47.8906C47.6562 19.7109 47.3438 18.6953 47.0313 17.6797H43.0469L46.0938 15.4141C45.4687 14.0859 44.7656 12.9141 43.9063 11.7422L35.9375 17.6797H32.8125V16.1172L41.9531 9.39844L40.8594 8.30469L32.8125 14.1641V3.38281C31.7969 2.99219 30.7812 2.75781 29.6875 2.52344V20.8047H31.6406Z" fill="white"/>
<path d="M2.03125 20.8047H20.3125V2.52344C19.2187 2.75781 18.2031 3.07031 17.1875 3.38281V14.1641L9.14063 8.30469C8.04688 9.32031 7.10938 10.4141 6.17188 11.5859L14.5312 17.6797H9.21875L4.45312 14.1641C4.21875 14.5547 3.98438 15.0234 3.82813 15.4141L6.875 17.6797H2.89063C2.57813 18.6953 2.26563 19.7109 2.03125 20.8047Z" fill="white"/>
<path d="M43.9844 11.7422C43.3594 10.8828 42.7344 10.1016 42.0312 9.32031L32.8125 16.0391V17.6016H35.9375L43.9844 11.7422" fill="#ED4C5C"/>
<path d="M14.4531 17.6797L6.17188 11.5859C5.85938 11.9766 5.625 12.3672 5.3125 12.7578C5.23438 12.8359 5.23438 12.9141 5.15625 12.9141C4.92187 13.3047 4.60938 13.7734 4.375 14.1641L9.14062 17.6797H14.4531Z" fill="#ED4C5C"/>
<path d="M47.9688 20.8047H29.6875V2.52344C28.2031 2.21094 26.6406 2.05469 25 2.05469C23.3594 2.05469 21.7969 2.21094 20.3125 2.52344V20.8047H2.03125C1.71875 22.2891 1.5625 23.8516 1.5625 25.4922C1.5625 27.1328 1.71875 28.6953 2.03125 30.1797H20.3125V48.4609C21.7969 48.7734 23.3594 48.9297 25 48.9297C26.6406 48.9297 28.2031 48.7734 29.6875 48.4609V30.1797H47.9688C48.2813 28.6953 48.4375 27.1328 48.4375 25.4922C48.4375 23.8516 48.2813 22.2891 47.9688 20.8047Z" fill="#ED4C5C"/>
</svg>
